<?xml version="1.0" encoding="utf-8"?>
<!-- Generator: Adobe Illustrator 16.0.0, SVG Export Plug-In . SVG Version: 6.00 Build 0)  -->
<!DOCTYPE svg PUBLIC "-//W3C//DTD SVG 1.1//EN" "http://www.w3.org/Graphics/SVG/1.1/DTD/svg11.dtd">
<svg version="1.1" id="图层_1" xmlns="http://www.w3.org/2000/svg" xmlns:xlink="http://www.w3.org/1999/xlink" x="0px" y="0px"
	 width="742.68px" height="331.65px" viewBox="0 0 742.68 331.65" enable-background="new 0 0 742.68 331.65" xml:space="preserve">
<path fill="#FFFFFF" d="M26.403,25.898"/>
<g>
	<defs>
		<path id="SVGID_1_" d="M0,308.431V25.071c0,0,2.677-21.041,22.753-23.944s699.323,0,699.323,0s18.738,5.079,20.076,23.944
			c1.339,18.866,0,286.61,0,286.61s-5.352,15.962-20.076,18.865c-14.722,2.901-699.323,0-699.323,0s-11.126,2.003-19.628-12.243"/>
	</defs>
	<clipPath id="SVGID_2_">
		<use xlink:href="#SVGID_1_"  overflow="visible"/>
	</clipPath>
	<g clip-path="url(#SVGID_2_)">
		<g>
			<path fill-rule="evenodd" clip-rule="evenodd" fill="#FFFFFF" d="M755.343,346.973c-255.319,0-510.638,0-765.957,0
				c0-123.763,0-247.525,0-371.287c255.319,0,510.638,0,765.956,0C755.342,99.448,755.342,223.21,755.343,346.973z M682.426,282.509
				l-0.009,0.102c3.971-3.349,7.942-6.698,11.93-10.062c4.227,6.488,7.288,7.744,13.723,5.745c0.899-0.616,1.799-1.232,2.698-1.85
				c0.728-2.382,2.417-4.972,1.96-7.1c-0.694-3.241-2.876-6.163-4.872-10.103c1.161-1.014,3.083-2.689,5.004-4.365
				c0.267-0.403,0.533-0.807,0.8-1.21c1.193-0.956,2.387-1.912,3.579-2.868c0.688-0.685,1.375-1.369,2.062-2.053
				c7.412-6.725,14.862-13.405,22.176-20.231c0.779-0.728,1.062-2.306,1.068-3.491c0.077-11.674,0.052-23.349,0.034-35.022
				c-0.001-0.75-0.177-1.5-0.33-2.729c-4.167,3.474-7.986,6.569-11.697,9.79c-1.824,1.583-3.296,2.191-5.908,1.092
				c-1.758-0.741-4.99-0.247-6.376,1.006c-1.508,1.363-2.508,4.396-2.153,6.426c0.432,2.467-0.222,3.689-1.865,5.062
				c-3.791,3.165-7.518,6.406-11.27,9.617c-0.987,0.855-1.973,1.711-2.959,2.565c-1.674,1.279-3.499,2.403-4.982,3.873
				c-2.122,2.104-3.918,2.188-6.741,0.879c-8.443-3.914-18.676,3.229-16.811,12.153c1.055,5.049-0.308,7.589-4.01,9.998
				c-0.567,0.369-0.968,0.997-1.446,1.507c-0.936,0.724-1.871,1.448-2.807,2.173c-3.089,2.584-6.178,5.167-9.267,7.752
				c-0.497,0.466-0.994,0.932-1.491,1.398c-5.934,4.763-11.866,9.525-17.853,14.33c-2.129-2.52-4.415-4.256-7.397-1.969
				c-3.309,2.538-1.825,5.323,0.303,8.073c-18.815,15.736-37.477,31.343-56.462,47.222c0.875,0.261,1.179,0.431,1.483,0.431
				c18.881,0.018,37.762,0.047,56.642-0.039c1.135-0.005,2.489-0.694,3.364-1.484c6.129-5.53,12.159-11.171,18.219-16.776
				c1.855-1.704,3.71-3.409,5.564-5.113c4.416-4.004,8.832-8.01,13.248-12.014c2.717,1.067,5.438,2.649,8.543,0.21
				c-1.675-1.749-5.322,0.513-5.121-3.266c0.068-0.195,0.19-0.348,0.365-0.458c0.17-0.182,0.34-0.365,0.511-0.548
				c0.518-0.74,1.034-1.48,1.552-2.222c0.245-0.008,0.489-0.015,0.734-0.022c0.181-0.145,0.361-0.287,0.542-0.432
				c0.724-0.781,1.447-1.563,2.17-2.346c1.119-1,2.238-2.001,3.357-3.001C682.436,282.974,682.502,282.764,682.426,282.509z
				 M712.014,282.259c-6.688,6.066-13.341,12.173-20.104,18.154c-0.997,0.883-2.517,1.175-3.796,1.74
				c-2.448-2.911-5.538-3.94-9.146-2.762c-3.778,1.236-6.137,3.793-6.428,7.938c0.012,0.679,0.024,1.358,0.037,2.037
				c0.796,2.03,1.592,4.062,2.589,6.606c-4.783,4.499-9.927,9.338-15.622,14.694c6.075,0,11.249,0,16.422,0
				c8.759-0.004,17.517-0.007,26.274-0.01c5.068,0.006,10.138,0.047,15.207,0.013c14.234-0.097,25.072-10.861,25.127-25.066
				c0.063-16.149,0.02-32.3,0.003-48.449c0-0.837-0.176-1.675-0.333-3.071c-9.637,9.053-18.815,17.674-27.994,26.295
				C713.504,281.005,712.759,281.632,712.014,282.259z M629.978,255.623c0.787-0.647,1.573-1.294,2.36-1.941
				c7.437-6.237,14.873-12.476,22.31-18.714c0.717,0.59,1.379,1.583,2.16,1.688c1.894,0.254,4.15,0.713,5.693-0.054
				c2.032-1.01,2.314-3.349,1.146-5.519c-0.364-0.677-0.793-1.32-1.183-1.963c2.274-2.143,4.383-4.128,6.49-6.114
				c6.918-5.697,13.874-11.35,20.707-17.147c0.877-0.744,1.12-2.236,1.455-2.951c1.185-0.356,2.542-0.403,3.396-1.083
				c4.522-3.604,8.849-7.452,13.41-11.003c0.971-0.756,2.707-1.038,3.966-0.819c3.791,0.658,6.903-1.623,6.295-5.384
				c-0.341-2.11,0.499-2.958,1.836-4.061c6.646-5.483,13.175-11.113,19.888-16.512c1.936-1.557,2.738-3.127,2.734-5.635
				c-0.074-44.167-0.04-88.333-0.062-132.5c-0.007-14.492-10.836-25.414-25.243-25.415C486.938,0.483,256.539,0.484,26.141,0.494
				c-14.481,0-25.404,10.85-25.406,25.253c-0.018,93.175-0.011,186.35,0.005,279.525c0,1.644,0.039,3.325,0.369,4.925
				c2.624,12.721,12.469,20.473,25.95,20.474c169.936,0.004,339.871,0.002,509.806,0.002c0.354,0,0.739,0.092,1.058-0.016
				c1.386-0.465,3.019-0.663,4.084-1.539c13.122-10.792,26.197-21.641,39.179-32.6c1.814-1.533,2.963-1.774,5.133-0.533
				c4.852,2.774,10.044,3.185,15.234,0.621c0.727-0.396,1.454-0.79,2.181-1.186c7.143-4.033,10.632-12.101,7.987-19.78
				c-1.077-3.13-0.046-4.66,2.131-6.438C619.293,264.758,624.61,260.16,629.978,255.623z M687.31,289.581
				c0.215,2.372,1.701,4.046,4.337,4.452c2.396,0.37,4.841-1.979,4.881-4.514c0.044-2.846-1.549-4.379-4.241-4.704
				C689.714,284.507,687.429,286.64,687.31,289.581z"/>
			<path fill-rule="evenodd" clip-rule="evenodd" fill="#1C8DBC" d="M601.551,296.606c-5.189,2.563-10.382,2.153-15.233-0.621
				c-2.17-1.241-3.318-1-5.133,0.533c-12.981,10.959-26.057,21.808-39.179,32.6c-1.065,0.876-2.698,1.074-4.084,1.539
				c-0.318,0.107-0.703,0.016-1.058,0.016c-169.935,0-339.87,0.002-509.806-0.002c-13.481-0.001-23.326-7.753-25.95-20.474
				c-0.33-1.6-0.369-3.281-0.369-4.925c-0.017-93.176-0.023-186.35-0.005-279.525C0.737,11.344,11.66,0.495,26.141,0.494
				c230.398-0.01,460.798-0.011,691.195,0.002c14.407,0.001,25.236,10.922,25.243,25.415c0.021,44.167-0.013,88.333,0.062,132.5
				c0.004,2.508-0.799,4.078-2.734,5.635c-6.713,5.399-13.241,11.029-19.888,16.512c-1.337,1.103-2.177,1.95-1.836,4.061
				c0.608,3.761-2.504,6.042-6.295,5.384c-1.259-0.219-2.995,0.063-3.966,0.819c-4.562,3.551-8.888,7.399-13.41,11.003
				c-0.854,0.68-2.211,0.727-3.396,1.083c-0.335,0.715-0.578,2.207-1.455,2.951c-6.833,5.798-13.789,11.45-20.707,17.147
				c-0.494-0.982-1.226-1.917-1.432-2.956c-0.41-2.068-0.529-4.193-0.77-6.294c0.068-0.71,0.137-1.419,0.205-2.129
				c0.172-0.472,0.345-0.943,0.516-1.416c0.047-0.234,0.095-0.468,0.142-0.703c0.195-0.462,0.392-0.925,0.587-1.387
				c0.056-0.244,0.11-0.488,0.166-0.732c0.161-0.265,0.322-0.529,0.484-0.794c1.724-4.59,3.442-9.183,5.174-13.771
				c0.984-2.608,1.731-5.439,5.615-4.754c0.527,0.093,1.234-0.829,1.859-1.282c0.784-0.528,1.569-1.058,2.354-1.587
				c0.444-0.006,0.889-0.011,1.333-0.017c0.712-0.001,1.425-0.001,2.137-0.002c5.666,0.001,11.333,0.001,16.999,0.002
				c0.945,0,1.891,0,2.836,0.001c0.704-0.002,1.408-0.003,2.112-0.005c0.48-0.001,0.962-0.002,1.442-0.004
				c0.439-0.015,0.879-0.03,1.317-0.046c0.609-0.334,1.219-0.667,1.828-1.002c-0.375-0.456-0.75-0.912-1.125-1.369l0.015-0.091
				c-1.214-0.226-2.427-0.637-3.643-0.648c-8.45-0.08-16.902-0.078-25.353-0.102c-0.086-0.251-0.171-0.501-0.257-0.751
				c-0.134-0.257-0.268-0.514-0.401-0.771c-0.651-0.726-1.303-1.45-1.955-2.177c-1.791-1.961-3.607-1.894-5.445-0.066
				c-0.667,0.679-1.334,1.359-2.002,2.039c-2.137,2.024-1.372,3.933,0.231,5.808c0.026,0.518,0.054,1.034,0.08,1.551
				c-0.979,1.616-1.957,3.232-2.936,4.849c-1-2.033-1.108-5.19-4.564-4.445c-3.087,0.665-3.839,2.967-3.149,5.857
				c-0.767,1.134-1.401,2.389-2.321,3.379c-4.059,4.371-8.087,8.781-12.342,12.957c-4.477,4.396-9.199,8.54-13.813,12.794
				c-1.342-0.452-2.684-0.904-4.026-1.357c-0.538-0.172-1.076-0.345-1.615-0.517c-0.065-0.137-0.173-0.186-0.319-0.146
				c-0.315-0.114-0.631-0.23-0.946-0.346c-0.392-0.124-0.783-0.248-1.175-0.372c-0.33-0.136-0.661-0.272-0.992-0.409
				c-0.333-0.109-0.665-0.219-0.998-0.328c-0.413-0.168-0.826-0.337-1.24-0.505c-0.091-0.137-0.216-0.187-0.376-0.147
				c-0.584-0.197-1.167-0.396-1.751-0.593c-0.066-0.13-0.169-0.172-0.308-0.126c-0.607-0.206-1.214-0.413-1.821-0.619l-0.256-0.104
				c-0.329-0.108-0.659-0.217-0.989-0.324c-0.373-0.134-0.746-0.267-1.118-0.399c-0.355-0.134-0.709-0.27-1.063-0.403
				c-0.338-0.104-0.676-0.21-1.013-0.314c-0.881-0.331-1.762-0.663-2.643-0.994c-0.342-0.132-0.684-0.264-1.026-0.396
				c-0.606-0.211-1.213-0.422-1.818-0.634l-0.216-0.078c-1.099-0.379-2.197-0.757-3.296-1.137c-0.144-0.18-0.327-0.293-0.551-0.339
				c0,0.001-0.019-0.045-0.019-0.045c-0.298-0.12-0.597-0.238-0.896-0.358c-0.1-0.101-0.221-0.158-0.361-0.175
				c0.074-0.7,0.2-1.398,0.216-2.101c0.092-3.922-2.227-6.796-5.744-7.157c-3.51-0.36-6.41,1.802-7.186,5.358
				c-0.713,3.271,1.43,6.064,5.534,7.214c0.038,0.35,0.122,0.702,0.109,1.051c-0.7,18.902-1.387,37.805-2.177,56.704
				c-0.043,1.021-0.747,2.222-1.508,2.968c-2.57,2.52-3.525,5.209-1.558,8.5c1.681,2.813,4.275,3.553,8.316,2.372
				c0.286-0.199,0.572-0.399,0.858-0.6c0.479-0.472,0.957-0.942,1.436-1.414c0.357,0.887,1.117,1.831,1,2.65
				C602.899,290.438,602.173,293.515,601.551,296.606z"/>
			<path fill-rule="evenodd" clip-rule="evenodd" fill="#238EBD" d="M650.766,312.351c-6.062,5.605-12.092,11.246-18.221,16.776
				c-0.875,0.79-2.229,1.479-3.364,1.484c-18.88,0.086-37.761,0.057-56.642,0.039c-0.305,0-0.608-0.17-1.483-0.431
				c18.985-15.879,37.646-31.485,56.462-47.222c-2.128-2.75-3.611-5.535-0.303-8.073c2.982-2.287,5.269-0.551,7.397,1.969
				c5.986-4.805,11.919-9.567,17.853-14.33c3.142,1.214,6.283,2.427,9.424,3.641c-0.012,0.229-0.043,0.456-0.091,0.681
				c-0.17,0.293-0.339,0.586-0.509,0.879c-0.054,0.421-0.107,0.842-0.162,1.263c-4.033,4.513-7.878,9.217-12.168,13.471
				c-2.71,2.688-3.878,7.131-8.44,7.817c-1.516,1.026-3.489,1.779-4.345,3.204c-0.393,0.654,1.405,2.625,2.21,4
				c1.191,0.188,2.384,0.375,3.575,0.563l0.015,0.014c1.462,2.206,2.958,4.391,4.378,6.624c1.873,2.948,1.243,4.912-1.864,6.127
				c-0.981,0.383-1.914,0.895-2.905,1.247c-4.818,1.715-9.649,3.396-14.476,5.088c-1.563-1.85-3.569-2.037-5.228-0.579
				c-0.933,0.819-1.584,2.609-1.442,3.859c0.272,2.428,1.193,4.783,1.56,6.125c1.002-0.944,2.752-2.512,4.392-4.188
				c0.623-0.637,0.988-1.524,1.471-2.298c7.1-2.893,14.199-5.785,21.298-8.679C649.693,311.732,650.229,312.042,650.766,312.351z"/>
			<path fill-rule="evenodd" clip-rule="evenodd" fill="#238EBD" d="M714.25,280.378c9.179-8.621,18.357-17.242,27.994-26.295
				c0.157,1.396,0.333,2.234,0.333,3.071c0.017,16.149,0.061,32.3-0.003,48.449c-0.055,14.205-10.893,24.97-25.127,25.066
				c-5.069,0.034-10.139-0.007-15.207-0.013c-0.931-3.333,1.296-5.602,5.189-6.153c1.665-0.236,3.94-1.534,4.467-2.912
				c0.531-1.392-0.65-3.52-1.285-5.25c-0.489-1.339-1.748-2.523-1.866-3.848c-0.344-3.843-0.311-7.721-0.376-11.586
				c-0.037-2.172,0.564-3.967,3.067-4.399c0.928-0.189,1.854-0.379,2.782-0.567c1.684,0.702,3.368,1.404,5.052,2.106
				c3.29,2.034,5.917,1.354,7.861-2.035c0.176-0.292,0.352-0.586,0.528-0.878c0.021-1.147,0.042-2.294,0.063-3.44l0.002-0.007
				c-0.413-0.718-0.826-1.435-1.239-2.152c-0.36-0.947-0.72-1.894-1.078-2.842c0.126-1.125,0.438-2.28,0.27-3.359
				c-0.055-0.343-1.639-0.899-2.086-0.631c-0.891,0.535-1.822,1.465-2.128,2.426c-0.91,2.868-1.771,3.318-3.785,1.057
				C716.212,284.538,715.37,282.334,714.25,280.378z"/>
			<path fill-rule="evenodd" clip-rule="evenodd" fill="#248EBD" d="M678.872,286.142c-0.723,0.782-1.446,1.563-2.17,2.345
				c-0.181,0.143-0.361,0.287-0.542,0.432c-0.245,0.008-0.489,0.015-0.735,0.022c-1.38,0.152-2.785,0.186-4.134,0.481
				c-3.171,0.695-6.315,1.516-9.47,2.285l-0.013-0.014c-0.209-0.234-0.416-0.47-0.625-0.704c-2.071-0.916-1.773-2.504-1.188-4.177
				c1.326-3.783,2.541-7.611,4.032-11.329c0.529-1.319,1.525-2.637,2.657-3.496c3.322-2.523,3.193-5.114-0.571-7.289
				c-0.028-4.486-0.056-8.973-0.085-13.459c0.479-0.509,0.879-1.137,1.446-1.506c3.702-2.409,5.064-4.949,4.01-9.998
				c-1.865-8.924,8.367-16.067,16.811-12.153c2.823,1.31,4.619,1.225,6.741-0.879c1.483-1.47,3.309-2.594,4.982-3.873
				c0.947,2.156,1.894,4.312,2.84,6.468c-1.176,1.908-1.288,3.668,0.718,5.131c0.398,0.526,1.25,1.339,1.125,1.538
				c-1.712,2.721-3.559,5.356-5.372,8.014c-0.633,0.161-1.266,0.323-1.898,0.485c-3.64-2.18-8.364-3.439-7.81-9.191
				c0.006-0.061-0.17-0.14-0.262-0.21l0.014,0.021c-0.177-0.275-0.354-0.551-0.531-0.826c-0.099-0.148-0.171-0.31-0.215-0.482
				c-0.248-0.268-0.496-0.534-0.743-0.802c-3.96-2.714-7.313-2.378-9.808,0.983c-2.104,2.837-1.432,6.443,1.614,8.651
				c2.526,1.833,5.571,1.395,8.946-1.287c2.782,1.485,5.563,2.971,8.343,4.455c0.011,0.396,0.021,0.794,0.032,1.191
				c-1.356,2.661-2.431,5.522-4.141,7.935c-2.3,3.243-5.09,6.141-7.67,9.186c-1.102,0.639-3.067,1.225-3.11,1.929
				c-0.073,1.189,1.07,2.454,1.702,3.688C682.153,275.184,680.513,280.663,678.872,286.142z"/>
			<path fill-rule="evenodd" clip-rule="evenodd" fill="#238EBD" d="M702.979,220.265c3.752-3.211,7.479-6.452,11.27-9.617
				c1.644-1.372,2.297-2.595,1.865-5.062c-0.354-2.029,0.646-5.063,2.153-6.426c1.386-1.253,4.618-1.747,6.376-1.006
				c2.612,1.1,4.084,0.491,5.908-1.092c3.711-3.221,7.53-6.316,11.697-9.79c0.153,1.229,0.329,1.979,0.33,2.729
				c0.018,11.674,0.043,23.349-0.034,35.022c-0.007,1.186-0.289,2.764-1.068,3.491c-7.313,6.826-14.764,13.507-22.176,20.23
				c-1.388-2.315-2.724-4.663-4.175-6.937c-2.073-3.245-4.231-6.437-6.355-9.649c-0.026-0.463-0.053-0.926-0.078-1.388
				c1.333-2.04,2.739-4.035,3.986-6.127c3.593-6.021,7.12-12.079,10.675-18.123c2.105-1.288,3.292-3.314,1.524-5.184
				c-0.884-0.936-3.692-1.049-5.01-0.354c-2.338,1.23-1.526,3.305,0.028,4.982c-0.25,1.002-0.314,2.103-0.781,2.99
				c-2.885,5.476-5.796,10.939-8.852,16.319c-0.731,1.287-2.049,2.242-3.096,3.351C705.771,225.839,704.375,223.052,702.979,220.265
				z"/>
			<path fill-rule="evenodd" clip-rule="evenodd" fill="#2D90BE" d="M672.54,307.329c0.291-4.145,2.649-6.701,6.428-7.938
				c3.607-1.179,6.697-0.149,9.146,2.762c-0.714,0.525-1.428,1.051-2.142,1.575l-0.06-0.046c-0.267-0.202-0.533-0.405-0.801-0.608
				c-3.063-1.213-5.915-1.161-8.236,1.523c-2.344,2.711-1.887,5.522-0.17,8.339c0.234,0.24,0.47,0.48,0.705,0.72l0.003,0.002
				c0.438,0.253,0.876,0.507,1.314,0.761l0.085,0.04c0.716,0.205,1.433,0.41,2.149,0.616c0.464,0.001,0.928,0.003,1.392,0.004
				c0.702-0.189,1.404-0.38,2.107-0.569c0.191-0.111,0.398-0.17,0.62-0.176c0.272-0.217,0.545-0.436,0.817-0.653l0.017-0.016
				c0.231-0.232,0.462-0.465,0.693-0.697c0.296-0.481,0.591-0.962,0.887-1.443c0.16-0.271,0.321-0.542,0.482-0.813
				c-0.023-0.204,0.019-0.394,0.126-0.569c-0.01-4.276,3.116-5.671,6.34-7.171c2.718-1.265,5.258-2.909,7.876-4.385
				c0.903,1.096,2.376,2.089,2.599,3.31c0.565,3.104,0.804,6.314,0.749,9.476c-0.093,5.414-1.819,10.161-6.423,13.413
				c-10.851-6.741-19.607-4.451-23.278,5.882c-5.173,0-10.347,0-16.422,0c5.695-5.356,10.839-10.195,15.622-14.694
				c-0.997-2.545-1.793-4.576-2.59-6.606C672.564,308.688,672.552,308.008,672.54,307.329z"/>
			<path fill-rule="evenodd" clip-rule="evenodd" fill="#2D90BE" d="M712.859,254.877c-1.921,1.676-3.843,3.352-5.004,4.365
				c1.996,3.939,4.178,6.861,4.872,10.103c0.457,2.128-1.232,4.718-1.96,7.1c-2.568-1.771-4.748-3.666-4.469-7.304
				c0.162-2.11-1.14-4.021-3.34-3.58c-1.466,0.294-2.63,2.098-3.93,3.226c1.185,1.238,2.222,3.313,3.582,3.552
				c3.618,0.635,4.556,3.148,5.458,5.956c-6.435,1.999-9.496,0.743-13.723-5.745c-3.987,3.363-7.959,6.713-11.93,10.062
				c1.159-4.299,2.318-8.598,3.479-12.896c0.523-0.673,1.047-1.346,1.571-2.02c1.544-2.925,2.926-5.95,4.673-8.747
				c2.026-3.248,4.373-6.297,6.581-9.433c1.154-0.113,2.31-0.227,3.465-0.339c0.793,0.47,1.569,0.975,2.384,1.402
				C707.325,252.026,710.095,253.446,712.859,254.877z"/>
			<path fill-rule="evenodd" clip-rule="evenodd" fill="#D2EAF2" d="M675.966,330.667c3.671-10.333,12.428-12.623,23.278-5.882
				c4.604-3.252,6.33-7.999,6.423-13.413c0.055-3.161-0.184-6.372-0.749-9.476c-0.223-1.221-1.695-2.214-2.6-3.31
				c0.456-4.195,1.507-4.983,5.601-4.2c5.535,1.059,8.944-0.939,9.348-5.482c2.308-0.228,5.064,0.406,5.722-2.984
				c0.806,0.258,1.612,0.516,2.418,0.773c0.359,0.948,0.719,1.895,1.078,2.842c-1.674,0.115-3.346,0.229-5.615,0.385
				c3.051,3.946,0.551,5.986-1.599,8.128c-1.684-0.702-3.368-1.404-5.052-2.106c-0.928,0.188-1.854,0.378-2.782,0.567
				c-2.503,0.433-3.104,2.228-3.067,4.399c0.065,3.865,0.032,7.743,0.376,11.586c0.118,1.324,1.377,2.509,1.866,3.848
				c0.635,1.73,1.816,3.858,1.285,5.25c-0.526,1.378-2.802,2.676-4.467,2.912c-3.894,0.552-6.12,2.82-5.189,6.153
				C693.482,330.66,684.725,330.663,675.966,330.667z"/>
			<path fill-rule="evenodd" clip-rule="evenodd" fill="#248EBD" d="M654.647,234.968c-7.437,6.238-14.873,12.477-22.311,18.714
				c-4.483-1.339-8.992-2.6-13.423-4.089c-0.738-0.247-1.476-1.445-1.585-2.285c-0.071-0.546,0.875-1.499,1.574-1.829
				c10.072-4.744,20.18-9.413,30.278-14.1c0.903,0.297,1.809,0.594,2.714,0.891c0.507,0.188,1.014,0.378,1.521,0.567
				c0.214-0.026,0.406,0.027,0.576,0.16C654.211,233.653,654.429,234.311,654.647,234.968z"/>
			<path fill-rule="evenodd" clip-rule="evenodd" fill="#2C90BE" d="M629.978,255.624c-5.367,4.536-10.685,9.134-16.127,13.578
				c-2.177,1.778-3.208,3.309-2.131,6.438c2.645,7.68-0.845,15.747-7.987,19.779c1.726-8.234,3.366-16.486,5.204-24.695
				c1.452-6.482,3.146-12.911,4.733-19.363c0.88-0.299,1.759-0.598,2.64-0.896C620.865,252.185,625.422,253.904,629.978,255.624z"/>
			<path fill-rule="evenodd" clip-rule="evenodd" fill="#3394C0" d="M661.821,291.707c3.154-0.77,6.299-1.59,9.47-2.285
				c1.349-0.296,2.754-0.329,4.134-0.481c-0.517,0.741-1.033,1.481-1.551,2.222c-0.171,0.182-0.341,0.365-0.511,0.548
				c-0.175,0.11-0.297,0.263-0.365,0.459c-1.141,1.019-2.281,2.036-3.422,3.055c-4.416,4.004-8.832,8.01-13.248,12.012
				c-2.205-2.416-4.523-4.405-7.979-2.133c-2.125-2.336-4.25-4.671-6.375-7.007l-0.015-0.014c0.06-0.175,0.096-0.354,0.109-0.539
				c2.157-3.294,9.424-3.875,13.457-1.411c1.273,0.777,3.873,1.29,4.611,0.594C661.27,295.658,661.314,293.438,661.821,291.707z"/>
			<path fill-rule="evenodd" clip-rule="evenodd" fill="#459BC4" d="M717.267,288.904c-0.403,4.543-3.813,6.541-9.348,5.482
				c-4.094-0.783-5.145,0.005-5.601,4.2c-2.617,1.476-5.157,3.12-7.875,4.385c-3.224,1.5-6.35,2.895-6.341,7.171
				c-0.711-2.138-1.421-4.276-2.131-6.414c0.714-0.524,1.428-1.05,2.142-1.575c1.279-0.565,2.799-0.857,3.796-1.74
				c6.764-5.981,13.416-12.088,20.104-18.152C713.765,284.476,715.517,286.69,717.267,288.904z"/>
			<path fill-rule="evenodd" clip-rule="evenodd" fill="#238EBD" d="M717.238,250.799c-1.192,0.956-2.386,1.912-3.58,2.867
				c-1.723-1.053-3.374-2.253-5.184-3.123c-2.663-1.28-5.551-2.197-6.322-5.58c-0.076-0.173-0.133-0.354-0.169-0.541
				c1.705-3.4,3.409-6.8,5.114-10.201c0.224-0.231,0.447-0.462,0.671-0.692c1.366,2.005,2.926,3.908,4.056,6.039
				C713.77,243.236,715.448,247.048,717.238,250.799z"/>
			<path fill-rule="evenodd" clip-rule="evenodd" fill="#66B2D1" d="M629.978,255.623c-4.556-1.719-9.112-3.438-13.667-5.156
				c0.515-6.095,0.44-6.19-4.829-6.256c4.572-0.255,6.987-3.756,9.843-6.572c3.194-3.151,6.378-6.315,9.49-9.547
				c0.771-0.801,1.246-1.887,1.857-2.842c1.02,0.392,2.04,0.782,3.06,1.173c-1.052,0.698-2.266,1.239-3.129,2.122
				c-4.187,4.286-8.284,8.658-12.396,13.016c-0.237,0.252-0.313,0.655-0.833,1.792c7.059-3.299,13.341-6.144,19.533-9.178
				c2.307-1.13,4.397-2.699,6.588-4.068c1.229,0.424,2.458,0.849,3.688,1.271c-10.099,4.688-20.206,9.356-30.278,14.101
				c-0.699,0.33-1.646,1.283-1.574,1.829c0.109,0.84,0.847,2.038,1.585,2.285c4.431,1.489,8.939,2.75,13.423,4.089
				C631.551,254.329,630.765,254.976,629.978,255.623z"/>
			<path fill-rule="evenodd" clip-rule="evenodd" fill="#4A9DC5" d="M654.647,234.968c-0.219-0.657-0.437-1.314-0.654-1.972
				c2.09,0.333,4.773,1.897,4.694-2.263c0.591-1.119,1.234-2.217,1.771-3.363c2.117-4.53,4.199-9.075,6.295-13.614
				c0.24,2.101,0.359,4.226,0.77,6.294c0.206,1.039,0.938,1.974,1.432,2.956c-2.107,1.986-4.216,3.972-6.49,6.114
				c0.39,0.643,0.818,1.286,1.183,1.963c1.169,2.17,0.887,4.509-1.146,5.519c-1.543,0.767-3.8,0.308-5.693,0.054
				C656.026,236.551,655.364,235.558,654.647,234.968z"/>
			<path fill-rule="evenodd" clip-rule="evenodd" fill="#61AFCF" d="M613.67,251.361c-1.587,6.452-3.281,12.881-4.733,19.363
				c-1.838,8.209-3.479,16.461-5.204,24.695c-0.727,0.396-1.454,0.791-2.182,1.187c0.622-3.092,1.349-6.168,1.793-9.285
				c0.117-0.819-0.643-1.764-1-2.65c0.212-2.148,0.423-4.296,0.635-6.443c0.454,1.072,0.907,2.144,1.658,3.917
				c1.235-6.176,2.347-11.612,3.404-17.06c0.934-4.803,1.807-9.618,2.706-14.427C611.722,250.892,612.696,251.127,613.67,251.361z"
				/>
			<path fill-rule="evenodd" clip-rule="evenodd" fill="#3C93C0" d="M687.31,289.581c0.119-2.941,2.404-5.074,4.977-4.766
				c2.692,0.325,4.285,1.858,4.241,4.704c-0.04,2.534-2.485,4.884-4.881,4.514C689.011,293.627,687.524,291.953,687.31,289.581z"/>
			<path fill-rule="evenodd" clip-rule="evenodd" fill="#2D90BE" d="M653.956,261.165c3.089-2.585,6.178-5.168,9.267-7.752
				c0.233,3.04,0.543,6.078,0.632,9.123c0.017,0.544-0.878,1.114-1.352,1.672C659.654,263.193,656.805,262.18,653.956,261.165z"/>
			<path fill-rule="evenodd" clip-rule="evenodd" fill="#DFEFF6" d="M708.069,278.294c-0.902-2.808-1.84-5.321-5.458-5.956
				c-1.36-0.238-2.397-2.313-3.582-3.552c1.3-1.128,2.464-2.932,3.93-3.226c2.2-0.441,3.502,1.47,3.34,3.58
				c-0.279,3.638,1.9,5.533,4.469,7.304C709.868,277.062,708.969,277.678,708.069,278.294z"/>
			<path fill-rule="evenodd" clip-rule="evenodd" fill="#C2E1ED" d="M648.349,305.103c3.456-2.272,5.774-0.283,7.979,2.133
				c-1.854,1.706-3.709,3.411-5.563,5.115c-0.535-0.309-1.071-0.618-1.608-0.928C648.887,309.316,648.617,307.21,648.349,305.103z"
				/>
			<path fill-rule="evenodd" clip-rule="evenodd" fill="#BCDEEB" d="M717.267,288.904c-1.75-2.214-3.502-4.429-5.253-6.644
				c0.745-0.629,1.49-1.256,2.236-1.883c1.12,1.956,1.962,4.16,3.428,5.808c2.014,2.262,2.875,1.812,3.785-1.057
				c0.306-0.961,1.237-1.891,2.128-2.426c0.447-0.269,2.031,0.288,2.086,0.631c0.169,1.079-0.144,2.234-0.27,3.359
				c-0.807-0.258-1.613-0.516-2.419-0.773C722.331,289.311,719.574,288.677,717.267,288.904z"/>
			<path fill-rule="evenodd" clip-rule="evenodd" fill="#61AFCF" d="M717.238,250.799c-1.79-3.751-3.469-7.563-5.414-11.231
				c-1.13-2.131-2.689-4.034-4.055-6.039c0.335-0.456,0.668-0.913,1.002-1.37c2.122,3.214,4.28,6.405,6.354,9.65
				c1.451,2.273,2.787,4.621,4.175,6.937C718.613,249.43,717.926,250.114,717.238,250.799z"/>
			<path fill-rule="evenodd" clip-rule="evenodd" fill="#6AB2D1" d="M702.979,220.265c1.396,2.787,2.792,5.574,4.188,8.361
				c-0.005,0.254-0.009,0.509-0.013,0.764c-1.432-0.031-2.863-0.062-4.295-0.092c-0.946-2.156-1.893-4.312-2.84-6.468
				C701.006,221.976,701.991,221.12,702.979,220.265z"/>
			<path fill-rule="evenodd" clip-rule="evenodd" fill="#6AB2D1" d="M685.896,269.715c-1.16,4.298-2.319,8.597-3.479,12.896
				c0,0,0.009-0.102,0.009-0.101c-0.097,0.041-0.274,0.081-0.276,0.126c-0.005,0.167,0.048,0.335,0.08,0.504
				c-1.119,1-2.238,2.001-3.357,3.001c1.641-5.478,3.281-10.957,4.922-16.435C684.494,269.709,685.194,269.712,685.896,269.715z"/>
			<path fill-rule="evenodd" clip-rule="evenodd" fill="#5CACCD" d="M662.503,264.208c0.474-0.558,1.368-1.128,1.352-1.672
				c-0.089-3.045-0.398-6.083-0.632-9.123c0.936-0.725,1.871-1.449,2.807-2.174c0.029,4.486,0.057,8.973,0.085,13.46
				c-1.167,0.102-2.333,0.203-3.5,0.306C662.577,264.738,662.54,264.474,662.503,264.208z"/>
			<path fill-rule="evenodd" clip-rule="evenodd" fill="#66B2D1" d="M702.152,244.963c0.771,3.383,3.659,4.3,6.322,5.58
				c1.81,0.87,3.461,2.07,5.184,3.123c-0.266,0.404-0.532,0.808-0.799,1.211c-2.765-1.431-5.534-2.851-8.29-4.298
				c-0.814-0.428-1.591-0.933-2.384-1.402C702.175,247.772,702.164,246.368,702.152,244.963z"/>
			<path fill-rule="evenodd" clip-rule="evenodd" fill="#DDEEF5" d="M669.576,295.224c1.141-1.019,2.281-2.036,3.422-3.055
				c-0.201,3.777,3.446,1.516,5.121,3.265C675.015,297.873,672.293,296.291,669.576,295.224z"/>
			<path fill-rule="evenodd" clip-rule="evenodd" fill="#66B2D1" d="M662.503,264.208c0.037,0.266,0.074,0.53,0.11,0.794
				c-0.241,0.399-0.482,0.801-0.725,1.202c-3.141-1.214-6.282-2.427-9.424-3.641c0.497-0.467,0.994-0.933,1.491-1.398
				C656.805,262.18,659.654,263.193,662.503,264.208z"/>
			<path fill-rule="evenodd" clip-rule="evenodd" fill="#459BC4" d="M672.54,307.329c0.012,0.679,0.024,1.358,0.037,2.037
				C672.564,308.688,672.552,308.008,672.54,307.329z"/>
			<path fill-rule="evenodd" clip-rule="evenodd" fill="#2D90BE" d="M682.229,283.14c-0.032-0.169-0.085-0.337-0.08-0.504
				c0.002-0.045,0.18-0.085,0.276-0.126C682.502,282.764,682.436,282.974,682.229,283.14z"/>
			<path fill-rule="evenodd" clip-rule="evenodd" fill="#DDEEF5" d="M676.16,288.918c0.181-0.145,0.361-0.289,0.542-0.432
				C676.521,288.631,676.341,288.773,676.16,288.918z"/>
			<path fill-rule="evenodd" clip-rule="evenodd" fill="#DDEEF5" d="M673.363,291.71c0.17-0.183,0.34-0.366,0.511-0.548
				C673.703,291.345,673.533,291.528,673.363,291.71z"/>
			<path fill-rule="evenodd" clip-rule="evenodd" fill="#E8F3F8" d="M602.979,278.228c-0.212,2.147-0.423,4.295-0.635,6.443
				c-0.479,0.472-0.957,0.942-1.436,1.414c-0.286,0.2-0.572,0.4-0.858,0.6c-4.041,1.181-6.636,0.441-8.316-2.372
				c-1.968-3.291-1.013-5.98,1.558-8.5c0.761-0.746,1.465-1.947,1.508-2.968c0.79-18.899,1.477-37.802,2.177-56.704
				c0.013-0.349-0.071-0.701-0.11-1.051c1.338-5.39,1.903-5.702,6.134-3.387c-0.234,0.816-0.468,1.634-0.702,2.451
				c-0.589,1.104-1.645,2.187-1.698,3.316c-0.803,16.777-1.467,33.563-2.179,50.346c-0.144,3.396-1.166,7.072,3.348,8.728
				C602.306,276.741,602.582,277.649,602.979,278.228z M595.342,281.552c0.098,0.462,0.194,0.925,0.291,1.386
				c1.22-0.223,2.862-0.056,3.538-0.784c0.645-0.694,0.28-2.324,0.414-4.393C597.533,279.594,596.438,280.573,595.342,281.552z"/>
			<path fill-rule="evenodd" clip-rule="evenodd" fill="#EBF5FA" d="M602.297,214.153c0.234-0.816,0.468-1.634,0.702-2.451
				c0.349,0.023,0.698,0.049,1.047,0.073c0.141,0.017,0.262,0.074,0.361,0.173c0.302,0.125,0.604,0.252,0.907,0.378l0.005,0.026
				c0.226,0.047,0.409,0.16,0.552,0.34c1.099,0.378,2.197,0.757,3.297,1.137l0.216,0.078c0.605,0.212,1.212,0.423,1.818,0.634
				c0.343,0.132,0.685,0.264,1.026,0.395c0.881,0.33,1.762,0.662,2.643,0.995c0.337,0.104,0.675,0.21,1.012,0.313
				c0.354,0.134,0.709,0.269,1.064,0.404c0.372,0.133,0.745,0.266,1.117,0.397c0.329,0.107,0.66,0.217,0.99,0.326
				c0,0,0.256,0.104,0.256,0.104c0.606,0.207,1.214,0.414,1.821,0.62c0.139-0.046,0.241-0.004,0.308,0.126
				c0.583,0.197,1.167,0.395,1.751,0.593c0.16-0.039,0.285,0.011,0.376,0.146c0.413,0.168,0.827,0.337,1.24,0.506
				c0.333,0.109,0.665,0.219,0.998,0.326c0.33,0.137,0.661,0.273,0.992,0.411c0.392,0.124,0.783,0.248,1.173,0.37
				c0.315,0.115,0.632,0.231,0.948,0.348c0.146-0.04,0.254,0.009,0.319,0.145c0.539,0.173,1.077,0.345,1.615,0.518
				c1.343,0.453,2.685,0.905,4.026,1.357c1.122,0.326,2.245,0.653,3.367,0.979c4.064,1.355,8.128,2.71,12.191,4.064
				c0.455,0.273,0.909,0.546,1.363,0.817c0.468,0.204,0.935,0.41,1.401,0.614c0.502,0.229,1.003,0.459,1.505,0.687l-0.015-0.012
				c0.947,0.217,1.895,0.435,2.842,0.651c0.386-0.003,0.771-0.007,1.157-0.01c0.075,4.161-2.608,2.597-4.698,2.264
				c-0.17-0.132-0.362-0.186-0.576-0.159c-0.508-0.189-1.015-0.378-1.521-0.567c-0.905-0.297-1.811-0.594-2.714-0.891
				c-1.229-0.424-2.458-0.849-3.688-1.272c-3.255-1.228-6.509-2.456-9.763-3.684c-1.02-0.391-2.04-0.781-3.059-1.173
				c-0.168-0.113-0.354-0.173-0.557-0.179c-0.721-0.246-1.442-0.491-2.164-0.736c-0.05-0.112-0.083-0.229-0.101-0.349
				c-0.348-0.123-0.694-0.246-1.042-0.369c-0.341-0.132-0.681-0.263-1.022-0.394c-2.295-0.807-4.591-1.614-6.887-2.421
				c-0.358-0.139-0.717-0.276-1.075-0.415c-0.332-0.101-0.664-0.201-0.996-0.302c-0.388-0.152-0.774-0.305-1.161-0.457
				c-0.288-0.094-0.576-0.187-0.864-0.28c-0.154,0.037-0.271-0.014-0.349-0.151c-0.404-0.174-0.809-0.348-1.213-0.521
				c-0.333-0.088-0.668-0.176-1.001-0.263c-0.365-0.15-0.729-0.301-1.094-0.45c-0.356-0.112-0.713-0.225-1.069-0.337
				c-0.337-0.127-0.674-0.254-1.011-0.38c-0.38-0.123-0.76-0.246-1.14-0.368c-0.34-0.116-0.681-0.23-1.021-0.347l-0.242-0.115
				c-0.463-0.176-0.926-0.352-1.389-0.527c-0.266-0.085-0.532-0.171-0.799-0.256c-1.072-0.408-2.143-0.816-3.215-1.225
				C602.939,214.323,602.618,214.238,602.297,214.153z"/>
			<path fill-rule="evenodd" clip-rule="evenodd" fill="#66B2D1" d="M638.246,223.92c-1.122-0.325-2.245-0.652-3.367-0.979
				c4.614-4.254,9.337-8.398,13.813-12.794c4.255-4.176,8.283-8.586,12.342-12.957c0.92-0.99,1.555-2.245,2.32-3.378
				c1.148,0.762,2.298,1.522,3.446,2.283c0.252,2.378,0.504,4.756,0.756,7.134c-0.493,0.682-0.987,1.363-1.481,2.045
				c-0.36-1.717-0.722-3.433-1.177-5.596c-0.632,1.007-1.139,1.628-1.447,2.334c-3.899,8.923-7.771,17.858-11.65,26.79
				c-0.454-0.272-0.908-0.545-1.362-0.818c1.902-4.51,3.774-9.032,5.715-13.526c2.148-4.977,4.358-9.928,6.543-14.89
				c-0.969-0.07-1.377,0.148-1.69,0.462c-7.066,7.067-14.137,14.131-21.155,21.245C639.146,221.989,638.773,223.03,638.246,223.92z"
				/>
			<path fill-rule="evenodd" clip-rule="evenodd" fill="#C2E1ED" d="M604.046,211.775c-0.349-0.024-0.698-0.05-1.047-0.073
				c-4.23-2.314-4.796-2.002-6.134,3.388c-4.104-1.149-6.246-3.942-5.533-7.214c0.775-3.557,3.676-5.719,7.186-5.358
				c3.518,0.361,5.836,3.235,5.744,7.157C604.246,210.377,604.12,211.075,604.046,211.775z"/>
			<path fill-rule="evenodd" clip-rule="evenodd" fill="#ADD6E6" d="M666.075,205.274c0.494-0.682,0.988-1.363,1.481-2.046
				c1.152-3.096,2.305-6.19,3.458-9.284c0.018-0.515,0.036-1.03,0.055-1.545c0.979-1.616,1.957-3.232,2.935-4.848
				c2.499-0.255,4.998-0.509,7.497-0.764c-0.625,0.453-1.332,1.375-1.859,1.282c-3.884-0.686-4.631,2.146-5.615,4.754
				c-1.731,4.588-3.45,9.181-5.174,13.771c-0.161,0.265-0.323,0.528-0.484,0.793c-0.056,0.244-0.11,0.488-0.166,0.731
				c-0.195,0.463-0.392,0.926-0.587,1.388c-0.047,0.235-0.095,0.469-0.142,0.703c-0.171,0.473-0.344,0.944-0.516,1.416
				c-0.068,0.71-0.137,1.419-0.205,2.129c-2.096,4.539-4.178,9.084-6.295,13.614c-0.536,1.146-1.18,2.244-1.771,3.363
				c-0.382,0.002-0.768,0.006-1.153,0.009c-0.023-0.253-0.047-0.507-0.071-0.76c2.652-7.277,5.305-14.554,7.957-21.831
				c0.165-0.281,0.33-0.562,0.496-0.843C665.969,206.631,666.022,205.952,666.075,205.274z"/>
			<path fill-rule="evenodd" clip-rule="evenodd" fill="#CEE7F1" d="M681.501,186.788c-2.499,0.255-4.998,0.509-7.497,0.764
				c-0.025-0.518-0.053-1.034-0.08-1.551c-0.076-1.936-0.153-3.872-0.23-5.809c0.668-0.68,1.335-1.36,2.004-2.039
				c1.815,0.023,3.629,0.045,5.443,0.066c0.652,0.727,1.304,1.451,1.955,2.178c0.133,0.257,0.268,0.514,0.401,0.771
				c0.086,0.25,0.171,0.5,0.257,0.75c0.014,0.261,0.026,0.522,0.04,0.783c0.02,0.833,0.04,1.667,0.061,2.5
				C683.07,185.73,682.285,186.26,681.501,186.788z"/>
			<path fill-rule="evenodd" clip-rule="evenodd" fill="#FAFDFE" d="M683.854,185.201c-0.021-0.833-0.041-1.667-0.061-2.501
				c9.651-0.011,19.304-0.021,28.955-0.031c0,0-0.015,0.091-0.015,0.09c-0.233,0.791-0.468,1.582-0.703,2.372
				c-0.438,0.016-0.878,0.031-1.317,0.047c-0.48,0.001-0.962,0.003-1.442,0.003c-0.704,0.002-1.408,0.003-2.112,0.005
				c-0.945,0-1.891,0-2.836-0.001c-5.666-0.001-11.333-0.001-16.999-0.002c-0.712,0.001-1.425,0.001-2.137,0.002
				C684.743,185.19,684.299,185.195,683.854,185.201z"/>
			<path fill-rule="evenodd" clip-rule="evenodd" fill="#C2E1ED" d="M671.069,192.399c-0.019,0.515-0.037,1.03-0.055,1.545
				c-1.404,0.717-2.809,1.435-4.214,2.151c-1.148-0.761-2.298-1.521-3.446-2.283c-0.688-2.892,0.063-5.193,3.15-5.858
				C669.961,187.209,670.069,190.366,671.069,192.399z"/>
			<path fill-rule="evenodd" clip-rule="evenodd" fill="#ADD6E6" d="M712.749,182.669c-9.651,0.01-19.304,0.021-28.955,0.031
				c-0.014-0.26-0.026-0.521-0.04-0.782c8.45,0.024,16.902,0.022,25.353,0.103C710.322,182.032,711.535,182.443,712.749,182.669z"/>
			<path fill-rule="evenodd" clip-rule="evenodd" fill="#ADD6E6" d="M673.693,180.192c0.077,1.937,0.154,3.873,0.23,5.809
				C672.321,184.125,671.557,182.217,673.693,180.192z"/>
			<path fill-rule="evenodd" clip-rule="evenodd" fill="#ADD6E6" d="M681.141,178.22c-1.814-0.021-3.628-0.043-5.443-0.066
				C677.533,176.326,679.35,176.259,681.141,178.22z"/>
			<path fill-rule="evenodd" clip-rule="evenodd" fill="#CEE7F1" d="M712.031,185.131c0.235-0.79,0.47-1.581,0.703-2.372
				c0.375,0.458,0.75,0.914,1.125,1.37C713.25,184.464,712.641,184.797,712.031,185.131z"/>
			<path fill-rule="evenodd" clip-rule="evenodd" fill="#E8F3F8" d="M609.168,213.829c-1.1-0.38-2.198-0.759-3.297-1.137
				C606.971,213.072,608.069,213.45,609.168,213.829z"/>
			<path fill-rule="evenodd" clip-rule="evenodd" fill="#E8F3F8" d="M614.871,215.931c-0.881-0.333-1.762-0.665-2.643-0.995
				C613.109,215.268,613.99,215.6,614.871,215.931z"/>
			<path fill-rule="evenodd" clip-rule="evenodd" fill="#CEE7F1" d="M704.323,185.185c0.945,0.001,1.891,0.001,2.836,0.001
				C706.214,185.185,705.269,185.185,704.323,185.185z"/>
			<path fill-rule="evenodd" clip-rule="evenodd" fill="#CEE7F1" d="M685.188,185.185c0.712-0.001,1.425-0.001,2.137-0.002
				C686.612,185.184,685.899,185.184,685.188,185.185z"/>
			<path fill-rule="evenodd" clip-rule="evenodd" fill="#E8F3F8" d="M623.19,218.814c-0.584-0.198-1.168-0.396-1.751-0.593
				C622.023,218.419,622.606,218.617,623.19,218.814z"/>
			<path fill-rule="evenodd" clip-rule="evenodd" fill="#E8F3F8" d="M611.202,214.541c-0.606-0.211-1.213-0.422-1.818-0.634
				C609.989,214.119,610.596,214.33,611.202,214.541z"/>
			<path fill-rule="evenodd" clip-rule="evenodd" fill="#E8F3F8" d="M621.132,218.096c-0.607-0.206-1.215-0.413-1.821-0.62
				C619.918,217.683,620.524,217.89,621.132,218.096z"/>
			<path fill-rule="evenodd" clip-rule="evenodd" fill="#E8F3F8" d="M630.853,221.584c-0.538-0.173-1.076-0.345-1.615-0.518
				C629.776,221.239,630.314,221.412,630.853,221.584z"/>
			<path fill-rule="evenodd" clip-rule="evenodd" fill="#CEE7F1" d="M709.271,185.181c0.48,0,0.962-0.002,1.442-0.003
				C710.233,185.179,709.752,185.18,709.271,185.181z"/>
			<path fill-rule="evenodd" clip-rule="evenodd" fill="#4A9DC5" d="M667.615,209.508c0.195-0.462,0.392-0.925,0.587-1.388
				C668.007,208.583,667.811,209.046,667.615,209.508z"/>
			<path fill-rule="evenodd" clip-rule="evenodd" fill="#4A9DC5" d="M666.958,211.627c0.172-0.472,0.345-0.943,0.517-1.416
				C667.303,210.684,667.13,211.155,666.958,211.627z"/>
			<path fill-rule="evenodd" clip-rule="evenodd" fill="#E8F3F8" d="M624.807,219.467c-0.413-0.169-0.827-0.338-1.24-0.506
				C623.98,219.13,624.394,219.299,624.807,219.467z"/>
			<path fill-rule="evenodd" clip-rule="evenodd" fill="#E8F3F8" d="M628.918,220.922c-0.316-0.116-0.633-0.232-0.948-0.348
				C628.287,220.691,628.603,220.808,628.918,220.922z"/>
			<path fill-rule="evenodd" clip-rule="evenodd" fill="#E8F3F8" d="M626.797,220.204c-0.331-0.138-0.662-0.274-0.992-0.411
				C626.136,219.932,626.467,220.068,626.797,220.204z"/>
			<path fill-rule="evenodd" clip-rule="evenodd" fill="#E8F3F8" d="M616.947,216.648c-0.355-0.136-0.711-0.271-1.064-0.404
				C616.238,216.379,616.592,216.515,616.947,216.648z"/>
			<path fill-rule="evenodd" clip-rule="evenodd" fill="#E8F3F8" d="M619.055,217.372c-0.33-0.109-0.661-0.219-0.99-0.326
				C618.396,217.155,618.726,217.264,619.055,217.372z"/>
			<path fill-rule="evenodd" clip-rule="evenodd" fill="#ADD6E6" d="M683.497,181.168c-0.134-0.257-0.269-0.514-0.401-0.771
				C683.229,180.654,683.363,180.911,683.497,181.168z"/>
			<path fill-rule="evenodd" clip-rule="evenodd" fill="#4A9DC5" d="M668.368,207.389c0.161-0.265,0.323-0.528,0.484-0.793
				C668.69,206.859,668.529,207.124,668.368,207.389z"/>
			<path fill-rule="evenodd" clip-rule="evenodd" fill="#61AFCF" d="M600.05,286.685c0.286-0.199,0.572-0.399,0.858-0.6
				C600.622,286.285,600.336,286.485,600.05,286.685z"/>
			<path fill-rule="evenodd" clip-rule="evenodd" fill="#C2E1ED" d="M605.314,212.326c-0.303-0.126-0.605-0.253-0.907-0.378
				c0.299,0.122,0.598,0.24,0.896,0.359C605.301,212.306,605.314,212.326,605.314,212.326z"/>
			<polygon fill-rule="evenodd" clip-rule="evenodd" fill="#E8F3F8" points="605.314,212.326 605.303,212.308 605.321,212.354 			
				"/>
			<path fill-rule="evenodd" clip-rule="evenodd" fill="#BEDFEB" d="M661.889,266.204c0.242-0.401,0.483-0.803,0.725-1.202
				c1.168-0.1,2.334-0.201,3.501-0.303c3.765,2.174,3.894,4.765,0.571,7.288c-1.132,0.859-2.128,2.177-2.657,3.496
				c-1.491,3.718-2.706,7.546-4.032,11.329c-0.586,1.673-0.884,3.261,1.188,4.177c0.208,0.234,0.416,0.469,0.625,0.704l0.013,0.014
				c-0.507,1.731-0.552,3.951-1.685,5.019c-0.738,0.696-3.338,0.184-4.611-0.594c-4.033-2.464-11.3-1.883-13.458,1.41
				c-1.229-0.01-2.456-0.017-3.684-0.023c-0.805-1.375-2.603-3.346-2.21-4c0.855-1.425,2.829-2.178,4.345-3.205
				c0.892,0.245,1.783,0.49,2.675,0.734c0.247,0.511,0.355,1.252,0.763,1.498c4.308,2.593,11.853,0.105,13.537-4.482
				c1.57-4.276,3.063-8.583,4.468-12.916c0.408-1.262,0.396-2.659,0.576-3.994c-0.47-0.709-0.94-1.419-1.41-2.127
				c0.055-0.421,0.108-0.842,0.161-1.264c0.169-0.293,0.34-0.585,0.511-0.878C661.846,266.66,661.877,266.434,661.889,266.204z"/>
			<path fill-rule="evenodd" clip-rule="evenodd" fill="#66B2D1" d="M648.349,305.103c0.269,2.107,0.538,4.214,0.808,6.32
				c-7.099,2.893-14.198,5.785-21.298,8.677c-0.251-0.973-0.501-1.946-0.752-2.918c4.826-1.692,9.657-3.373,14.476-5.088
				c0.991-0.353,1.924-0.864,2.905-1.247c3.107-1.215,3.737-3.179,1.864-6.127c-1.42-2.233-2.916-4.418-4.378-6.624
				C644.099,300.432,646.224,302.767,648.349,305.103z"/>
			<path fill-rule="evenodd" clip-rule="evenodd" fill="#BCDEEB" d="M627.106,317.182c0.251,0.972,0.501,1.945,0.752,2.918
				c-0.482,0.774-0.848,1.662-1.471,2.299c-1.64,1.677-3.39,3.244-4.392,4.188c-0.366-1.342-1.287-3.697-1.56-6.125
				c-0.142-1.25,0.51-3.04,1.442-3.859C623.537,315.145,625.543,315.332,627.106,317.182z"/>
			<path fill-rule="evenodd" clip-rule="evenodd" fill="#66B2D1" d="M661.127,269.026c0.47,0.708,0.94,1.418,1.41,2.127
				c-2.135,1.897-4.414,3.657-6.374,5.721c-4.407,4.645-8.656,9.44-12.97,14.174c-0.892-0.244-1.783-0.489-2.675-0.734
				c4.563-0.686,5.73-5.128,8.44-7.816C653.249,278.243,657.094,273.539,661.127,269.026z"/>
			<path fill-rule="evenodd" clip-rule="evenodd" fill="#66B2D1" d="M638.384,297.519c1.228,0.007,2.454,0.014,3.684,0.023
				c-0.013,0.186-0.049,0.365-0.108,0.54C640.768,297.894,639.575,297.706,638.384,297.519z"/>
			<path fill-rule="evenodd" clip-rule="evenodd" fill="#66B2D1" d="M661.798,266.885c-0.17,0.293-0.341,0.585-0.51,0.878
				C661.459,267.471,661.628,267.178,661.798,266.885z"/>
			<path fill-rule="evenodd" clip-rule="evenodd" fill="#BCDEEB" d="M719.271,298.048c2.149-2.142,4.649-4.182,1.599-8.128
				c2.27-0.156,3.941-0.27,5.615-0.385c0.414,0.718,0.827,1.435,1.24,2.152c-1.872,1.213-2.706,2.567-0.593,4.325
				C725.188,299.401,722.561,300.082,719.271,298.048z"/>
			<path fill-rule="evenodd" clip-rule="evenodd" fill="#D2EAF2" d="M727.132,296.013c-2.113-1.758-1.279-3.112,0.593-4.325
				l-0.002,0.007c-0.021,1.146-0.042,2.293-0.063,3.44C727.483,295.427,727.308,295.721,727.132,296.013z"/>
			<path fill-rule="evenodd" clip-rule="evenodd" fill="#BCDEEB" d="M727.659,295.135c0.021-1.147,0.043-2.294,0.063-3.44
				C727.702,292.841,727.681,293.987,727.659,295.135z"/>
			<path fill-rule="evenodd" clip-rule="evenodd" fill="#BCDEEB" d="M711.437,296.509c0.928-0.189,1.854-0.379,2.782-0.567
				C713.291,296.13,712.364,296.319,711.437,296.509z"/>
			<path fill-rule="evenodd" clip-rule="evenodd" fill="#DFEFF6" d="M688.638,241.323c-3.375,2.682-6.42,3.12-8.946,1.287
				c-3.046-2.208-3.718-5.814-1.614-8.651c2.494-3.361,5.848-3.697,9.808-0.983c0.248,0.268,0.495,0.534,0.743,0.802
				c0.044,0.173,0.116,0.334,0.214,0.482c0.178,0.276,0.355,0.551,0.532,0.826c0,0-0.014-0.021-0.013-0.021
				C689.12,237.15,688.879,239.236,688.638,241.323z"/>
			<path fill-rule="evenodd" clip-rule="evenodd" fill="#66B2D1" d="M698.721,249.516c-2.208,3.136-4.555,6.185-6.581,9.433
				c-1.747,2.797-3.129,5.822-4.674,8.747c-0.755-1.202-1.51-2.404-2.264-3.605c2.58-3.045,5.37-5.942,7.67-9.186
				c1.71-2.412,2.784-5.273,4.142-7.935C697.584,247.818,698.152,248.667,698.721,249.516z"/>
			<path fill-rule="evenodd" clip-rule="evenodd" fill="#BCDEEB" d="M702.859,229.298c1.432,0.03,2.863,0.061,4.295,0.091
				c0.512,0.461,1.024,0.922,1.537,1.383c0.025,0.462,0.052,0.925,0.078,1.388c-0.332,0.456-0.665,0.913-1,1.369
				c-0.225,0.23-0.448,0.461-0.671,0.693c-1.174,0.069-2.348,0.139-3.521,0.208C701.571,232.966,701.684,231.206,702.859,229.298z"
				/>
			<path fill-rule="evenodd" clip-rule="evenodd" fill="#BCDEEB" d="M685.202,264.09c0.754,1.201,1.509,2.403,2.264,3.605
				c-0.523,0.674-1.047,1.347-1.57,2.02c-0.701-0.003-1.401-0.006-2.102-0.009c-0.632-1.233-1.775-2.498-1.702-3.688
				C682.135,265.314,684.101,264.729,685.202,264.09z"/>
			<path fill-rule="evenodd" clip-rule="evenodd" fill="#C2E1ED" d="M698.721,249.516c-0.568-0.849-1.137-1.697-1.707-2.546
				c-0.012-0.397-0.022-0.795-0.03-1.192c0.151-0.438,0.3-0.874,0.448-1.312c0.633-0.162,1.266-0.324,1.897-0.484
				c0.886,0.148,1.77,0.295,2.654,0.44c0.036,0.188,0.093,0.368,0.169,0.541c0.012,1.405,0.022,2.81,0.033,4.214
				C701.03,249.289,699.875,249.402,698.721,249.516z"/>
			<path fill-rule="evenodd" clip-rule="evenodd" fill="#61AFCF" d="M701.983,244.422c-0.885-0.146-1.769-0.292-2.654-0.44
				c1.814-2.658,3.661-5.294,5.373-8.015c0.125-0.199-0.727-1.012-1.125-1.538c1.174-0.068,2.348-0.138,3.521-0.207
				C705.393,237.622,703.688,241.021,701.983,244.422z"/>
			<path fill-rule="evenodd" clip-rule="evenodd" fill="#66B2D1" d="M697.432,244.466c-0.148,0.438-0.297,0.874-0.448,1.312
				c-2.782-1.483-5.563-2.969-8.346-4.454c0.241-2.087,0.482-4.173,0.724-6.259c0.091,0.07,0.267,0.149,0.261,0.21
				C689.067,241.026,693.792,242.286,697.432,244.466z"/>
			<path fill-rule="evenodd" clip-rule="evenodd" fill="#66B2D1" d="M688.628,233.777c-0.248-0.268-0.495-0.534-0.743-0.802
				C688.132,233.243,688.38,233.51,688.628,233.777z"/>
			<path fill-rule="evenodd" clip-rule="evenodd" fill="#3394C0" d="M661.809,291.693c-0.209-0.235-0.417-0.47-0.625-0.704
				C661.393,291.224,661.6,291.459,661.809,291.693z"/>
			<path fill-rule="evenodd" clip-rule="evenodd" fill="#66B2D1" d="M689.374,235.086c-0.177-0.275-0.354-0.55-0.532-0.826
				C689.02,234.535,689.197,234.811,689.374,235.086z"/>
			<path fill-rule="evenodd" clip-rule="evenodd" fill="#61AFCF" d="M708.691,230.771c-0.513-0.461-1.025-0.922-1.537-1.383
				c0.004-0.254,0.008-0.509,0.013-0.763c1.047-1.108,2.364-2.063,3.096-3.351c3.056-5.38,5.967-10.844,8.852-16.319
				c0.467-0.888,0.531-1.988,0.782-2.989c1.152,0.185,2.304,0.369,3.456,0.555c-3.555,6.044-7.082,12.103-10.675,18.123
				C711.431,226.736,710.024,228.731,708.691,230.771z"/>
			<path fill-rule="evenodd" clip-rule="evenodd" fill="#D8ECF4" d="M723.353,206.521c-1.152-0.186-2.304-0.37-3.456-0.555
				c-1.556-1.679-2.367-3.753-0.029-4.983c1.317-0.694,4.126-0.581,5.01,0.354C726.645,203.207,725.458,205.233,723.353,206.521z"/>
			<path fill-rule="evenodd" clip-rule="evenodd" fill="#D2EAF2" d="M685.972,303.729c0.71,2.138,1.42,4.276,2.131,6.414
				c-0.106,0.176-0.148,0.365-0.125,0.57c-0.161,0.271-0.321,0.541-0.482,0.812c-0.296,0.481-0.591,0.962-0.887,1.443
				c-0.231,0.232-0.462,0.465-0.693,0.697l-0.017,0.016c-0.272,0.218-0.545,0.437-0.817,0.653c-0.222,0.006-0.429,0.064-0.62,0.175
				c-0.702,0.189-1.405,0.38-2.107,0.57c-0.464-0.001-0.928-0.003-1.392-0.004c-0.717-0.206-1.434-0.411-2.149-0.616
				c0,0-0.085-0.04-0.085-0.041c-0.438-0.254-0.876-0.507-1.314-0.76l-0.003-0.002c-0.235-0.239-0.471-0.479-0.705-0.72
				c-1.717-2.816-2.174-5.628,0.17-8.339c2.321-2.685,5.173-2.736,8.237-1.523c0.268,0.202,0.534,0.406,0.8,0.608L685.972,303.729z"
				/>
			<path fill-rule="evenodd" clip-rule="evenodd" fill="#459BC4" d="M682.354,315.079c0.702-0.19,1.405-0.381,2.107-0.57
				C683.758,314.699,683.056,314.89,682.354,315.079z"/>
			<path fill-rule="evenodd" clip-rule="evenodd" fill="#459BC4" d="M678.813,314.459c0.716,0.205,1.433,0.41,2.149,0.616
				C680.245,314.869,679.528,314.664,678.813,314.459z"/>
			<path fill-rule="evenodd" clip-rule="evenodd" fill="#459BC4" d="M677.413,313.658c0.438,0.253,0.877,0.506,1.314,0.76
				C678.289,314.165,677.852,313.911,677.413,313.658z"/>
			<path fill-rule="evenodd" clip-rule="evenodd" fill="#459BC4" d="M687.495,311.524c0.161-0.271,0.321-0.541,0.482-0.812
				C687.816,310.982,687.655,311.254,687.495,311.524z"/>
			<path fill-rule="evenodd" clip-rule="evenodd" fill="#459BC4" d="M676.705,312.937c0.234,0.24,0.47,0.48,0.705,0.72
				C677.175,313.417,676.939,313.177,676.705,312.937z"/>
			<path fill-rule="evenodd" clip-rule="evenodd" fill="#459BC4" d="M685.915,313.665c0.231-0.232,0.462-0.465,0.693-0.697
				C686.377,313.2,686.146,313.433,685.915,313.665z"/>
			<path fill-rule="evenodd" clip-rule="evenodd" fill="#459BC4" d="M685.081,314.334c0.272-0.217,0.545-0.436,0.817-0.653
				C685.626,313.898,685.354,314.117,685.081,314.334z"/>
			<path fill-rule="evenodd" clip-rule="evenodd" fill="#459BC4" d="M685.912,303.683c-0.266-0.202-0.532-0.406-0.8-0.608
				C685.379,303.277,685.646,303.48,685.912,303.683z"/>
			<path fill-rule="evenodd" clip-rule="evenodd" fill="#4A9DC5" d="M651.896,232.27c0.507,0.189,1.014,0.378,1.521,0.567
				C652.909,232.647,652.402,232.458,651.896,232.27z"/>
			<path fill-rule="evenodd" clip-rule="evenodd" fill="#C2E1ED" d="M613.67,251.361c-0.974-0.234-1.948-0.47-2.922-0.704
				c-2.124-2.418-1.982-4.579,0.733-6.446c5.27,0.065,5.344,0.161,4.829,6.256C615.429,250.764,614.55,251.063,613.67,251.361z"/>
			<path fill-rule="evenodd" clip-rule="evenodd" fill="#1C8DBC" d="M611.481,244.211c-2.716,1.867-2.857,4.028-0.733,6.446
				c-0.9,4.81-1.773,9.625-2.707,14.428c-1.058,5.447-2.169,10.884-3.404,17.06c-0.751-1.773-1.204-2.845-1.658-3.917
				c-0.396-0.578-0.673-1.486-1.211-1.684c-4.514-1.655-3.491-5.331-3.348-8.728c0.712-16.783,1.376-33.568,2.179-50.346
				c0.054-1.13,1.109-2.212,1.698-3.316c0.321,0.084,0.643,0.169,0.964,0.254c1.07,0.409,2.144,0.816,3.216,1.225
				c0.267,0.085,0.533,0.171,0.799,0.256c0.463,0.176,0.926,0.352,1.389,0.527c0,0,0.242,0.115,0.241,0.115
				c0.341,0.116,0.682,0.23,1.022,0.347c0.38,0.122,0.76,0.245,1.138,0.368c0.337,0.127,0.674,0.254,1.013,0.38
				c0.356,0.112,0.713,0.225,1.068,0.337c0.364,0.149,0.729,0.3,1.095,0.45c0.333,0.087,0.668,0.175,1,0.263
				c0.403,0.174,0.81,0.348,1.214,0.521c0.078,0.138,0.194,0.188,0.348,0.152c0.287,0.093,0.575,0.186,0.865,0.279
				c0.387,0.152,0.773,0.305,1.16,0.457c0.331,0.101,0.664,0.201,0.997,0.302c0.358,0.139,0.717,0.276,1.074,0.415
				c2.296,0.807,4.592,1.614,6.888,2.421c0.342,0.131,0.682,0.262,1.021,0.394c0.347,0.123,0.696,0.246,1.044,0.369
				c0.018,0.12,0.051,0.236,0.101,0.349c0.722,0.245,1.443,0.49,2.164,0.736c0.203,0.006,0.389,0.065,0.557,0.179
				c-0.612,0.955-1.087,2.041-1.858,2.842c-3.112,3.231-6.296,6.396-9.49,9.547C618.469,240.455,616.054,243.956,611.481,244.211z"
				/>
			<path fill-rule="evenodd" clip-rule="evenodd" fill="#2590BD" d="M635.731,226.423c3.254,1.228,6.508,2.456,9.763,3.684
				c-2.19,1.369-4.281,2.938-6.588,4.068c-6.192,3.034-12.475,5.879-19.533,9.178c0.52-1.137,0.596-1.54,0.833-1.792
				c4.112-4.357,8.21-8.729,12.396-13.016C633.466,227.662,634.68,227.121,635.731,226.423z"/>
			<path fill-rule="evenodd" clip-rule="evenodd" fill="#DDEEF5" d="M595.342,281.552c1.096-0.979,2.191-1.958,4.243-3.791
				c-0.134,2.068,0.23,3.698-0.414,4.393c-0.676,0.729-2.318,0.562-3.538,0.784C595.536,282.477,595.439,282.014,595.342,281.552z"
				/>
			<path fill-rule="evenodd" clip-rule="evenodd" fill="#248EBD" d="M638.246,223.92c0.527-0.89,0.9-1.931,1.604-2.645
				c7.019-7.114,14.089-14.178,21.155-21.245c0.313-0.313,0.722-0.532,1.69-0.462c-2.185,4.962-4.395,9.913-6.543,14.89
				c-1.94,4.494-3.813,9.017-5.715,13.526C646.374,226.63,642.311,225.275,638.246,223.92z"/>
			<path fill-rule="evenodd" clip-rule="evenodd" fill="#2590BD" d="M666.075,205.274c-0.053,0.678-0.106,1.356-0.159,2.035
				c-0.164,0.28-0.33,0.562-0.496,0.842c-2.652,7.277-5.305,14.554-7.956,21.832c-0.924,0.036-1.848,0.071-2.771,0.107l0.015,0.012
				c-0.502-0.229-1.003-0.457-1.505-0.687c-0.467-0.204-0.934-0.41-1.401-0.614c3.879-8.931,7.751-17.866,11.65-26.789
				c0.309-0.706,0.815-1.327,1.447-2.334C665.354,201.842,665.715,203.558,666.075,205.274z"/>
			<path fill-rule="evenodd" clip-rule="evenodd" fill="#E8F3F8" d="M627.787,223.224c-2.296-0.807-4.592-1.614-6.888-2.421
				C623.196,221.609,625.492,222.417,627.787,223.224z"/>
			<path fill-rule="evenodd" clip-rule="evenodd" fill="#E8F3F8" d="M606.477,215.633c-1.072-0.408-2.146-0.815-3.216-1.225
				C604.334,214.816,605.404,215.225,606.477,215.633z"/>
			<path fill-rule="evenodd" clip-rule="evenodd" fill="#66B2D1" d="M654.692,230.091c0.924-0.036,1.848-0.071,2.771-0.107
				c0.023,0.252,0.047,0.506,0.07,0.759C656.587,230.525,655.64,230.308,654.692,230.091z"/>
			<path fill-rule="evenodd" clip-rule="evenodd" fill="#66B2D1" d="M632.116,225.071c-0.721-0.246-1.442-0.491-2.164-0.736
				C630.674,224.58,631.396,224.825,632.116,225.071z"/>
			<path fill-rule="evenodd" clip-rule="evenodd" fill="#E8F3F8" d="M609.928,216.878c-0.341-0.116-0.682-0.23-1.022-0.347
				C609.247,216.647,609.588,216.762,609.928,216.878z"/>
			<path fill-rule="evenodd" clip-rule="evenodd" fill="#E8F3F8" d="M608.664,216.416c-0.463-0.176-0.926-0.352-1.389-0.527
				C607.738,216.064,608.201,216.24,608.664,216.416z"/>
			<path fill-rule="evenodd" clip-rule="evenodd" fill="#E8F3F8" d="M619.825,220.388c-0.333-0.101-0.666-0.201-0.997-0.302
				C619.161,220.187,619.493,220.287,619.825,220.388z"/>
			<path fill-rule="evenodd" clip-rule="evenodd" fill="#66B2D1" d="M653.202,229.416c0.502,0.229,1.003,0.458,1.505,0.687
				C654.205,229.875,653.704,229.646,653.202,229.416z"/>
			<path fill-rule="evenodd" clip-rule="evenodd" fill="#E8F3F8" d="M616.455,219.197c-0.404-0.174-0.811-0.348-1.214-0.521
				C615.646,218.85,616.051,219.023,616.455,219.197z"/>
			<path fill-rule="evenodd" clip-rule="evenodd" fill="#E8F3F8" d="M612.078,217.626c-0.339-0.126-0.676-0.253-1.013-0.38
				C611.404,217.372,611.741,217.499,612.078,217.626z"/>
			<path fill-rule="evenodd" clip-rule="evenodd" fill="#E8F3F8" d="M617.668,219.629c-0.29-0.094-0.578-0.187-0.865-0.279
				C617.092,219.442,617.38,219.535,617.668,219.629z"/>
			<path fill-rule="evenodd" clip-rule="evenodd" fill="#E8F3F8" d="M629.852,223.986c-0.348-0.123-0.697-0.246-1.044-0.369
				C629.157,223.74,629.504,223.863,629.852,223.986z"/>
			<path fill-rule="evenodd" clip-rule="evenodd" fill="#E8F3F8" d="M614.241,218.413c-0.365-0.15-0.73-0.301-1.095-0.45
				C613.512,218.112,613.876,218.263,614.241,218.413z"/>
			<path fill-rule="evenodd" clip-rule="evenodd" fill="#3D9CC4" d="M666.801,196.096c1.405-0.717,2.81-1.435,4.214-2.151
				c-1.153,3.094-2.306,6.188-3.458,9.284C667.305,200.852,667.053,198.474,666.801,196.096z"/>
			<path fill-rule="evenodd" clip-rule="evenodd" fill="#66B2D1" d="M665.42,208.151c0.166-0.28,0.332-0.562,0.496-0.842
				C665.75,207.59,665.585,207.87,665.42,208.151z"/>
			<path fill-rule="evenodd" clip-rule="evenodd" fill="#2891BE" d="M643.193,291.048c4.313-4.733,8.563-9.529,12.97-14.174
				c1.96-2.063,4.239-3.823,6.374-5.721c-0.181,1.335-0.168,2.732-0.576,3.994c-1.404,4.333-2.897,8.64-4.468,12.916
				c-1.685,4.588-9.229,7.075-13.537,4.482C643.549,292.3,643.44,291.559,643.193,291.048z"/>
		</g>
	</g>
</g>
</svg>
